<svg xmlns="http://www.w3.org/2000/svg" viewBox="0 0 582.58 379.93"><defs><style>.cls-1{fill:#2d3e50;}.cls-2{fill:#364a5e;}.cls-3{font-size:72px;fill:#0e8baa;stroke:#084954;stroke-miterlimit:10;}.cls-18,.cls-3{font-family:Bauhaus93, Bauhaus 93;}.cls-4{fill:#0c8baa;}.cls-5{fill:#96a5a6;}.cls-6{fill:#7f8c8d;}.cls-7{fill:#bec4c8;}.cls-8{fill:#ecf0f1;}.cls-9{fill:#c03a2b;}.cls-10{fill:#2eab62;}.cls-11{fill:#f49d15;}.cls-12{isolation:isolate;}.cls-13{fill:#e44e28;}.cls-14{fill:#ebebeb;}.cls-15{fill:#ec662b;}.cls-16{fill:#fff;}.cls-17{fill:#010101;}.cls-18{font-size:21px;fill:#fdfdf8;}</style></defs><title>Logo</title><g id="Capa_2" data-name="Capa 2"><g id="Capa_1-2" data-name="Capa 1"><path class="cls-1" d="M72.4,279.22a62.28,62.28,0,0,0-36.75,50A13.39,13.39,0,0,0,49,342.93h96.28a13.39,13.39,0,0,0,13.33-13.7,62.29,62.29,0,0,0-36.75-50C117.37,288.13,108,295,97.12,295S76.86,288.13,72.4,279.22Z"/><path class="cls-2" d="M131.51,240.18a34.39,34.39,0,1,1-34.39-34.25A34.32,34.32,0,0,1,131.51,240.18Z"/><path class="cls-2" d="M97.12,267.58a61.83,61.83,0,0,0-61.47,54.8A13.36,13.36,0,0,0,49,336.08h96.28a13.37,13.37,0,0,0,13.33-13.7,61.83,61.83,0,0,0-61.47-54.8Z"/><text class="cls-3" transform="translate(211.43 265.75)">SOCA</text><rect class="cls-4" y="353.93" width="582.58" height="26" rx="9.5" ry="9.5"/><path class="cls-5" d="M81.37,109.75c.08,1,.19,1.86.19,2.84,0,10.58-4.48,19.91-11.44,25.56h60c-7-5.65-11.44-15-11.44-25.56,0-1,.11-1.88.19-2.84H81.37Z"/><path class="cls-6" d="M81.37,109.75a23.2,23.2,0,0,1,.19,2.84,37.46,37.46,0,0,1-.94,8.52h39a37.45,37.45,0,0,1-.94-8.52,23,23,0,0,1,.19-2.84H81.37Z"/><path class="cls-7" d="M34.12,18.86a5.68,5.68,0,0,0-6,5.68v85.21a6,6,0,0,0,6,5.68h132a6.05,6.05,0,0,0,6-5.68V24.54a5.68,5.68,0,0,0-6-5.68h-132Z"/><rect class="cls-2" x="34.12" y="24.54" width="132" height="79.53"/><path class="cls-1" d="M166.12,30.22l-126,73.85h126V30.22Z"/><path class="cls-7" d="M435.86,248.56v78.06c0,6.13,5.3,11.15,11.83,11.15H554.17c6.54,0,11.83-5,11.83-11.15V248.56Z"/><path class="cls-7" d="M447.69,220.68c-6.53,0-11.83,5-11.83,11.15v16.73H566V231.83c0-6.16-5.29-11.15-11.83-11.15H447.69Z"/><path class="cls-8" d="M435.86,243V321c0,6.16,5.3,11.15,11.83,11.15H554.17c6.54,0,11.83-5,11.83-11.15V243Z"/><path class="cls-9" d="M453.61,231.83a5.93,5.93,0,1,1-5.92-5.58A5.75,5.75,0,0,1,453.61,231.83Z"/><path class="cls-10" d="M471.35,231.83a5.93,5.93,0,1,1-5.92-5.58A5.75,5.75,0,0,1,471.35,231.83Z"/><path class="cls-11" d="M489.1,231.83a5.93,5.93,0,1,1-5.92-5.58A5.75,5.75,0,0,1,489.1,231.83Z"/><path class="cls-7" d="M453.61,254.13a5.75,5.75,0,0,0-5.92,5.58v55.76a5.75,5.75,0,0,0,5.92,5.58h11.83a5.75,5.75,0,0,0,5.92-5.58V259.71a5.75,5.75,0,0,0-5.92-5.58Zm35.49,0a5.59,5.59,0,1,0,0,11.15h59.15a5.59,5.59,0,1,0,0-11.15Zm0,22.3a5.75,5.75,0,0,0-5.92,5.58v33.46A5.75,5.75,0,0,0,489.1,321h59.15a5.76,5.76,0,0,0,5.92-5.58V282a5.76,5.76,0,0,0-5.92-5.58Z"/><g id="形状_1" data-name="形状 1" class="cls-12"><g id="形状_1-2" data-name="形状 1"><polygon class="cls-13" points="236.84 33.29 249.21 155.81 304.72 169.41 360.39 155.79 372.78 33.29 236.84 33.29"/></g></g><g id="形状_1-3" data-name="形状 1" class="cls-12"><g id="形状_1-4" data-name="形状 1"><path class="cls-14" d="M304.81,58.34H262.13l.41,4,4.18,41.41h38.08v-15H282.29l-1.56-15.39h24.07Zm-19,64.94-1.21-12H267.48l2.38,23.59,34.86,8.54.08,0V127.77l-.07,0Z"/></g></g><g id="形状_1-5" data-name="形状 1" class="cls-12"><g id="形状_1-6" data-name="形状 1"><polygon class="cls-15" points="304.81 43.31 304.81 159 349.79 147.99 360.37 43.31 304.81 43.31"/></g></g><g id="形状_1-7" data-name="形状 1" class="cls-12"><g id="形状_1-8" data-name="形状 1"><path class="cls-16" d="M304.75,103.78h21l-2,19.49-19,4.52v15.63l34.89-8.54.26-2.54,4-39.56.42-4H304.75v15Zm0-45.44v15h41.11L346.2,70l.78-7.62.41-4H304.75Z"/></g></g><g id="形状_1-9" data-name="形状 1" class="cls-12"><g id="形状_1-10" data-name="形状 1"><path class="cls-17" d="M266,7.54h-7.91V0h-8.65V22.85h8.65V15.2H266v7.65h8.65V0H266V7.54Zm12.41,0h7.61V22.85h8.65V7.58h7.62V0H278.45ZM320.69,8l-5.55-8h-9V22.85h8.46V11.52l6,8.12h.15l5.95-8.12V22.85h8.61V0h-9Zm27.52,7.27V0h-8.65V22.85h20.81V15.29Z"/></g></g><path class="cls-5" d="M445.23,105.34v22.81s0,0,0,.67c0,16.1,24.94,30.19,55.71,30.19s55.71-14.09,55.71-30.19V105.34Z"/><path class="cls-7" d="M556.64,105.34c0,14.82-24.94,26.83-55.71,26.83s-55.71-12-55.71-26.83S470.17,78.5,500.93,78.5,556.64,90.52,556.64,105.34Z"/><path class="cls-6" d="M445.61,128.81a10.42,10.42,0,0,0-.39,3.35c0,14.76,24.94,26.83,55.71,26.83s55.71-12.07,55.71-26.83a10.62,10.62,0,0,0-.38-3.35c-3.43,12.75-26.92,23.48-55.33,23.48S449,141.56,445.61,128.81Z"/><path class="cls-5" d="M445.23,71.8V94.6s0,0,0,.67c0,16.1,24.94,30.19,55.71,30.19s55.71-14.09,55.71-30.19V71.8Z"/><path class="cls-7" d="M556.64,71.8c0,14.82-24.94,26.83-55.71,26.83s-55.71-12-55.71-26.83S470.17,45,500.93,45,556.64,57,556.64,71.8Z"/><path class="cls-6" d="M445.61,95.27a10.42,10.42,0,0,0-.39,3.35c0,14.76,24.94,26.83,55.71,26.83s55.71-12.07,55.71-26.83a10.62,10.62,0,0,0-.38-3.35c-3.43,12.75-26.92,23.48-55.33,23.48S449,108,445.61,95.27Z"/><path class="cls-5" d="M445.23,38.26V61.06s0,0,0,.67c0,16.1,24.94,30.19,55.71,30.19s55.71-14.09,55.71-30.19V38.26Z"/><path class="cls-6" d="M445.61,61.73a10.42,10.42,0,0,0-.39,3.35c0,14.76,24.94,26.83,55.71,26.83s55.71-12.07,55.71-26.83a10.62,10.62,0,0,0-.38-3.35c-3.43,12.75-26.92,23.48-55.33,23.48S449,74.48,445.61,61.73Z"/><path class="cls-7" d="M500.93,105.34V159c30.77,0,55.71-14.09,55.71-30.19V105.34Z"/><path class="cls-8" d="M500.93,78.5v53.66c30.77,0,55.71-12,55.71-26.83S531.71,78.5,500.93,78.5Z"/><path class="cls-7" d="M500.93,71.8v53.66c30.77,0,55.71-13.52,55.71-30.19V71.8Z"/><path class="cls-5" d="M556.26,95.27c-3.43,13.23-26.92,23.48-55.33,23.48v6.71c30.77,0,55.71-12,55.71-26.83A13.57,13.57,0,0,0,556.26,95.27Z"/><path class="cls-8" d="M500.93,45V98.63c30.77,0,55.71-12,55.71-26.83S531.71,45,500.93,45Z"/><path class="cls-7" d="M500.93,38.26V91.92c30.77,0,55.71-13.52,55.71-30.19V38.26Z"/><path class="cls-5" d="M556.26,61.73C552.83,75,529.34,85.21,500.93,85.21v6.71c30.77,0,55.71-12,55.71-26.83A13.57,13.57,0,0,0,556.26,61.73Z"/><path class="cls-5" d="M556.26,128.81c-3.43,12.75-26.92,23.48-55.33,23.48V159c30.77,0,55.71-12.07,55.71-26.83A10.62,10.62,0,0,0,556.26,128.81Z"/><path class="cls-7" d="M556.64,38.26c0,14.82-24.94,26.83-55.71,26.83s-55.71-12-55.71-26.83,24.94-26.83,55.71-26.83S556.64,23.44,556.64,38.26Z"/><text class="cls-18" transform="translate(135.5 372.93)">Cristian Alelejandro Ortiz Solano</text></g></g></svg>